Coordinates
version=1
nRows=13
nColumns=36
inDegrees=yes

Units are S.I. units (second, meters, Newtons, ...)
If the header above contains a line with 'inDegrees', this indicates whether rotational values are in degrees (yes) or radians (no).

endheader
time	pelvis_tilt	pelvis_list	pelvis_rotation	pelvis_tx	pelvis_ty	pelvis_tz	hip_flexion_r	hip_adduction_r	hip_rotation_r	knee_angle_r	knee_angle_r_beta	ankle_angle_r	subtalar_angle_r	mtp_angle_r	hip_flexion_l	hip_adduction_l	hip_rotation_l	knee_angle_l	knee_angle_l_beta	ankle_angle_l	subtalar_angle_l	mtp_angle_l	lumbar_extension	lumbar_bending	lumbar_rotation	arm_flex_r	arm_add_r	arm_rot_r	elbow_flex_r	pro_sup_r	arm_flex_l	arm_add_l	arm_rot_l	elbow_flex_l	pro_sup_l
      3.70000000	    -48.44723916	      2.95697901	     -8.04344935	      0.72836395	      0.54736458	     -0.12657587	    114.09607310	     -6.67492826	     -5.38742292	    105.42399219	      1.83999577	     39.22756770	     -8.73307567	     -7.49999987	    117.98563545	    -17.32766123	      9.37319687	    106.32578600	      1.85573505	     38.32930147	     -6.30949569	     -7.49999987	    -28.48423030	      1.44301927	      4.01568228	     78.23812601	    -22.63972325	     19.38794598	     65.21012034	     83.46189652	     85.50157299	    -26.47908280	     37.19460432	     68.94511440	     77.28501102
      3.71666670	    -48.53274060	      2.71982584	     -7.85980873	      0.72754908	      0.55032731	     -0.12595907	    113.67312723	     -6.87907765	     -5.62641828	    104.58791358	      1.82540345	     38.77138814	     -8.67417123	     -7.49999987	    117.65075494	    -17.12787116	      9.22011343	    105.55678126	      1.84231338	     37.83982185	     -6.49449643	     -7.49999987	    -27.94855581	      1.49562226	      4.53984199	     77.40281888	    -23.44200992	     18.04890349	     64.34227838	     87.09472479	     85.18344768	    -24.95887453	     36.72926433	     66.35242213	     79.87863817
      3.73333330	    -48.69695111	      2.54666157	     -7.73578932	      0.73917108	      0.56054448	     -0.11761245	    112.89458703	     -6.84146916	     -5.81305536	    103.42972834	      1.80518930	     38.47624394	     -8.63389971	     -7.49999987	    116.88069930	    -17.10015508	      9.02313952	    104.53687437	      1.82451265	     37.73771270	     -6.32072356	     -7.49999987	    -27.64374558	      1.52293488	      4.10921351	     76.13430118	    -22.75340936	     17.51911370	     64.50581421	     85.96604859	     83.16297937	    -26.15768031	     35.48078827	     67.20831266	     79.30839449
      3.75000000	    -48.53351671	      2.41876577	     -7.72167809	      0.74643988	      0.56413277	     -0.11847323	    111.71113691	     -6.67202510	     -5.91751202	    102.33827497	      1.78613985	     38.36256317	     -8.48784719	     -7.49999987	    115.57303531	    -17.15920442	      8.78326566	    103.53171794	      1.80696936	     37.96071250	     -6.00316774	     -7.49999987	    -27.21026973	      1.47153420	      3.79623403	     73.89564207	    -22.67180265	     16.33185943	     65.51426430	     85.83898319	     80.66758942	    -26.80698056	     33.33662419	     68.58983521	     79.58914497
      3.76666670	    -48.02724105	      2.24877010	     -7.69231863	      0.75217276	      0.57167237	     -0.11531869	    110.10137149	     -6.47386183	     -5.96548236	    101.20287444	      1.76632337	     38.06897747	     -8.36066246	     -7.49999987	    113.82198035	    -17.12086274	      8.56228833	    102.38438267	      1.78694458	     37.85443788	     -5.92395912	     -7.49999987	    -27.08919577	      1.32369250	      3.68200709	     72.53193470	    -22.95287802	     16.40740869	     65.34432091	     85.72014249	     79.45382502	    -27.23854174	     33.44285392	     68.46738440	     79.53441787
      3.78333330	    -47.72950780	      2.38609792	     -7.84052038	      0.77480039	      0.58099584	     -0.12417111	    108.54897556	     -6.20049461	     -5.75761880	    100.13947088	      1.74776348	     38.38891988	     -8.26980132	     -7.49999987	    111.83940992	    -17.22994430	      8.10494023	    101.28143415	      1.76769450	     39.00410561	     -4.98110775	     -7.49999987	    -26.50784756	      1.39982535	      3.84399822	     68.29268790	    -23.30565476	     13.89266616	     66.92378187	     81.97145843	     74.32450540	    -25.60920521	     28.61498391	     69.01236880	     77.15533623
      3.80000000	    -47.11625579	      2.39792424	     -8.06068030	      0.78059940	      0.59538214	     -0.12101328	    106.20727974	     -5.81980655	     -5.58955540	     98.49449285	      1.71905320	     38.45636198	     -8.24423878	     -7.49999987	    109.15953960	    -17.37911076	      7.58695429	     99.73281981	      1.74066608	     39.72011976	     -4.18293173	     -7.49999987	    -26.62064050	      1.35089607	      3.83989091	     66.31183803	    -22.82848795	     12.66693342	     66.29200981	     87.34252248	     70.93518529	    -25.43989937	     25.80170590	     69.19086863	     85.43926261
      3.81666670	    -46.61771235	      2.58132024	     -8.11631189	      0.77694928	      0.61392866	     -0.12513572	    103.77440655	     -5.63573787	     -5.27240052	     96.24503337	      1.67979272	     38.26220898	     -8.11715831	     -7.49999987	    106.30939302	    -17.37866801	      6.64228375	     97.59174728	      1.70329731	     39.94183829	     -3.51836200	     -7.49999987	    -27.26920702	      1.12705461	      3.95726174	     65.98074276	    -23.02024203	     12.61570777	     65.41590346	     83.39402527	     70.36741180	    -25.18260697	     25.80968811	     68.74243451	     81.69103994
      3.83333330	    -46.25726866	      2.54737571	     -8.22687240	      0.78192188	      0.62072296	     -0.12172778	    101.52812576	     -5.46777991	     -5.30302475	     94.09316898	      1.64223560	     38.05030451	     -8.04198950	     -7.49999987	    103.90198982	    -17.40636653	      6.07174071	     95.62595386	      1.66898775	     39.76287909	     -3.08063950	     -7.49999987	    -27.08111252	      1.06745786	      4.01711476	     64.28580904	    -23.08308635	     12.62057040	     64.82896096	     83.47399989	     68.19063324	    -25.32547267	     25.91897939	     68.23670989	     81.75305770
      3.85000000	    -45.19209769	      2.70906272	     -8.52274971	      0.78864884	      0.62895914	     -0.12235307	     98.68043858	     -5.08283280	     -5.12521734	     92.06927320	      1.60691196	     37.79006346	     -8.23546315	     -7.49999987	    100.63021820	    -17.70477701	      5.17630217	     93.63147268	      1.63417748	     39.95738335	     -2.25422154	     -7.49999987	    -27.28341977	      0.72118782	      3.65204012	     62.06896133	    -21.78829591	     10.76196507	     63.22822459	     83.21355415	     64.65121613	    -25.13885196	     22.02237604	     68.07310810	     81.58289672
      3.86666670	    -44.61527608	      2.76826927	     -8.71065254	      0.78973012	      0.64070598	     -0.12376801	     96.38614140	     -4.89934662	     -5.09928551	     90.05998063	      1.57184319	     37.56135020	     -8.20723367	     -7.49999987	     98.09924318	    -17.83081519	      4.50762596	     91.69982401	      1.60046385	     39.74986797	     -1.68229978	     -7.49999987	    -26.99299823	      0.58536908	      3.79502103	     59.71891662	    -21.91566982	     10.92639216	     62.38002015	     83.30090114	     62.28269388	    -25.35828747	     21.99093582	     67.67521134	     81.68497595
      3.88333330	    -43.68441743	      2.89854826	     -8.95351834	      0.79252572	      0.65439156	     -0.11823328	     93.75959525	     -4.63481728	     -5.09899588	     87.86668544	      1.53356296	     36.92250252	     -8.72360182	     -7.49999987	     95.10239884	    -18.29126752	      3.45717189	     89.51470292	      1.56232629	     39.70722246	     -0.63719789	     -7.49999987	    -27.17261011	      0.07524128	      3.34730923	     57.70216536	    -20.34242227	     10.04722616	     60.19569192	     83.47532870	     59.58252723	    -25.27950707	     19.60972927	     66.03069466	     81.84651490
      3.90000000	    -43.38194326	      2.95891397	     -9.16454484	      0.78490170	      0.67009755	     -0.12262218	     91.89308726	     -4.48649366	     -5.32667729	     85.44144069	      1.49123446	     36.06552911	     -8.85132322	     -7.49999987	     93.18340784	    -18.62418199	      2.64535528	     87.34041550	      1.52437782	     38.94734358	     -0.11212770	     -7.49999987	    -27.14732969	     -0.14324998	      3.58367428	     56.59569934	    -20.05992946	     10.05251231	     59.26858155	     81.23621170	     58.43365739	    -25.33293128	     19.29691001	     66.19279340	     79.74481899
